<?xml version="1.0" encoding="UTF-8"?>
<svg version="1.1" xmlns="http://www.w3.org/2000/svg" width="390" height="486">
<path d="M0 0 C2.36827879 2.12602737 4.68273648 4.29906334 6.99609375 6.484375 C8.30485395 7.59297187 9.61725734 8.69728474 10.93359375 9.796875 C41.55986556 36.671736 62.47215479 79.0160819 65.99609375 119.484375 C66.13934939 123.83534238 66.13106378 128.18368548 66.12307739 132.53669739 C66.12463738 133.84406929 66.12619737 135.1514412 66.12780464 136.49843043 C66.13196621 140.11167462 66.12992166 143.72489229 66.12681842 147.33813655 C66.12455172 151.24061375 66.12805018 155.14308645 66.13079834 159.04556274 C66.13524079 166.6829534 66.13428652 174.32033422 66.1313857 181.95772526 C66.12912651 188.16269685 66.12882138 194.36766568 66.12990952 200.57263756 C66.13006275 201.45602771 66.13021598 202.33941785 66.13037386 203.2495774 C66.13069358 205.04415093 66.1310178 206.83872447 66.13134645 208.633298 C66.13419656 225.45201194 66.13092113 242.27072041 66.12554608 259.08943345 C66.12107459 273.52829365 66.12185773 287.96714581 66.12646484 302.40600586 C66.1318122 319.17265842 66.133926 335.93930621 66.13085258 352.7059595 C66.13053403 354.49237009 66.13021966 356.27878068 66.12990952 358.06519127 C66.12975524 358.94416041 66.12960096 359.82312954 66.12944201 360.72873411 C66.12857763 366.93055975 66.13003796 373.13238236 66.13238907 379.33420753 C66.13518887 386.88552217 66.13444481 394.43682641 66.12910832 401.98813985 C66.12647436 405.84265511 66.12546118 409.69715302 66.12875748 413.55166817 C66.13227128 417.72345094 66.12808515 421.8951896 66.12307739 426.06697083 C66.12530811 427.29398785 66.12753884 428.52100487 66.12983716 429.78520423 C66.12722941 430.89744698 66.12462166 432.00968972 66.12193489 433.15563679 C66.12177254 434.11920733 66.12161019 435.08277787 66.12144291 436.07554752 C65.99609375 438.484375 65.99609375 438.484375 64.99609375 441.484375 C43.87609375 441.484375 22.75609375 441.484375 0.99609375 441.484375 C0.99609375 424.984375 0.99609375 408.484375 0.99609375 391.484375 C-10.55390625 391.484375 -22.10390625 391.484375 -34.00390625 391.484375 C-34.02578003 387.11662842 -34.02578003 387.11662842 -34.0480957 382.66064453 C-34.09910847 372.88984556 -34.16580493 363.11919501 -34.23962116 353.34854317 C-34.28378806 347.4418494 -34.32315118 341.53521622 -34.3503418 335.62841797 C-34.62790948 277.13960282 -34.97363685 215.35476811 -75.00390625 168.484375 C-75.67808594 167.67613281 -76.35226563 166.86789063 -77.046875 166.03515625 C-97.89235169 141.8483281 -127.98083557 127.70379168 -159.671875 125.078125 C-165.11546906 124.68635897 -170.54742331 124.53946221 -176.00390625 124.484375 C-176.92574707 124.46729492 -177.84758789 124.45021484 -178.79736328 124.43261719 C-187.55351031 124.37402702 -195.72907602 124.42239007 -202.52587891 130.51318359 C-205.25351835 133.33553851 -207.63659519 136.35883585 -210.00390625 139.484375 C-210.94939428 140.63871226 -211.89728923 141.79108253 -212.84765625 142.94140625 C-242.39525193 179.85272829 -247.58700705 228.12439967 -248.625 273.69140625 C-248.65850461 275.1396878 -248.65850461 275.1396878 -248.69268608 276.61722755 C-249.20073522 299.74053638 -248.71517575 322.82832674 -248.14544678 345.94592285 C-247.90921804 355.58733875 -247.69067692 365.22916469 -247.4765625 374.87109375 C-247.44160109 376.42092768 -247.44160109 376.42092768 -247.40593338 378.00207138 C-246.93509555 399.1679434 -246.92516623 420.31257382 -247.00390625 441.484375 C-272.41390625 441.484375 -297.82390625 441.484375 -324.00390625 441.484375 C-324.09223628 400.7105555 -324.16603569 359.93682688 -324.20816757 319.16293894 C-324.21316986 314.33942007 -324.2183472 309.51590139 -324.22363281 304.69238281 C-324.22468205 303.73218507 -324.2257313 302.77198733 -324.22681233 301.78269269 C-324.24417511 286.27462662 -324.27568983 270.7666204 -324.31251743 255.25858973 C-324.35004211 239.32305236 -324.37216636 223.38754614 -324.38026023 207.4519664 C-324.3857242 197.63414043 -324.40292481 187.8164837 -324.43557212 177.99870987 C-324.45686265 171.2486424 -324.46307376 164.49866127 -324.45791176 157.74856274 C-324.45537235 153.86531057 -324.45901417 149.98235222 -324.48072815 146.09915352 C-324.64186857 115.75672186 -320.26759248 88.87253619 -307.00390625 61.484375 C-306.6908252 60.83227051 -306.37774414 60.18016602 -306.05517578 59.50830078 C-298.60609823 44.20397576 -288.70071733 30.79572957 -277.00390625 18.484375 C-275.83056902 17.11506282 -274.66336659 15.74045713 -273.50390625 14.359375 C-248.63674072 -14.01101709 -210.18583888 -32.18100033 -174.00390625 -40.515625 C-173.09302246 -40.72880371 -172.18213867 -40.94198242 -171.24365234 -41.16162109 C-112.34839888 -54.30388169 -46.27868142 -38.75613893 0 0 Z M-276.4140625 44.91796875 C-293.92735355 63.72854062 -306.82499618 87.24932204 -312.00390625 112.484375 C-312.1848584 113.35570068 -312.36581055 114.22702637 -312.55224609 115.12475586 C-314.40411362 125.33781343 -314.22911313 135.46138588 -314.12890625 145.796875 C-314.11885021 147.6165315 -314.10972903 149.43619341 -314.1015625 151.25585938 C-314.07977105 155.66550104 -314.04538789 160.07487642 -314.00390625 164.484375 C-312.63400511 161.83112015 -311.45842522 159.18177914 -310.41015625 156.38671875 C-301.5300023 133.15842889 -290.25893456 113.40601659 -273.00390625 95.484375 C-272.31167969 94.71738281 -271.61945313 93.95039063 -270.90625 93.16015625 C-243.81812065 64.08869566 -200.17712858 51.0635607 -161.49853516 49.375 C-124.00735738 48.22075939 -87.33735896 58.61275007 -58.00390625 82.484375 C-57.43929688 82.94215332 -56.8746875 83.39993164 -56.29296875 83.87158203 C-22.98459232 111.06190788 -3.00813827 150.00797434 5.74609375 191.671875 C5.94493164 192.58936523 6.14376953 193.50685547 6.34863281 194.45214844 C11.38725696 220.00825752 10.26641899 246.40936751 10.19888163 272.31329346 C10.18623629 277.99466465 10.18519304 283.67603878 10.18283081 289.35742188 C10.17665607 300.07705584 10.16030047 310.79664819 10.14013183 321.51626396 C10.11764686 333.73665472 10.10674797 345.95704764 10.09674096 358.17745399 C10.0759299 383.27978926 10.03930482 408.38206761 9.99609375 433.484375 C25.17609375 433.484375 40.35609375 433.484375 55.99609375 433.484375 C56.91297929 429.81683283 57.14586093 426.98678563 57.192276 423.23727417 C57.21047897 421.95038193 57.22868195 420.66348969 57.24743652 419.33760071 C57.26278964 417.91110331 57.27804509 416.48460485 57.29321289 415.05810547 C57.31266982 413.55198154 57.33253203 412.04586281 57.35276794 410.53974915 C57.40675742 406.4256909 57.45468635 402.31158202 57.50134587 398.1974349 C57.55182221 393.81576119 57.60703737 389.43414658 57.66148376 385.05252075 C57.75307388 377.61903603 57.84067372 370.18551191 57.92602539 362.75195312 C58.01183967 355.28216828 58.10181673 347.81245072 58.1965332 340.34277344 C58.67726054 302.37963669 59.08610915 264.41764672 59.11493373 226.45110941 C59.11713068 224.17602929 59.12103517 221.90095811 59.12538338 219.6258812 C59.1518882 203.98097818 59.01272529 188.35278292 58.53930664 172.71435547 C58.51908349 172.03785517 58.49886034 171.36135487 58.47802436 170.66435456 C57.4489396 137.06579325 53.50568805 106.26101535 36.99609375 76.484375 C36.63757324 75.83597656 36.27905273 75.18757813 35.90966797 74.51953125 C31.03072471 65.80944254 25.61815744 57.99321939 18.99609375 50.484375 C18.26519531 49.64390625 17.53429687 48.8034375 16.78125 47.9375 C14.55504661 45.41786031 12.28778748 42.94451801 9.99609375 40.484375 C9.27292969 39.69546875 8.54976563 38.9065625 7.8046875 38.09375 C-24.0169349 4.71066051 -72.52630717 -14.02288777 -118.09545898 -15.62426758 C-177.84473464 -16.72478103 -233.8173001 1.90697527 -276.4140625 44.91796875 Z M-265.00390625 121.484375 C-265.72964844 122.13792969 -266.45539063 122.79148438 -267.203125 123.46484375 C-283.26660146 138.74632541 -294.87193166 158.99095969 -305.28375244 178.31486511 C-306.43709835 180.43998976 -307.61936612 182.54965378 -308.82894897 184.64328003 C-313.4471436 193.05677374 -314.93912269 199.31145341 -314.46875 209.05078125 C-314.43260924 210.41681864 -314.40030548 211.78296159 -314.37133789 213.14916992 C-314.30160632 216.1671684 -314.2109125 219.18354532 -314.10446167 222.20046997 C-313.83373632 229.98193843 -313.68667438 237.76639545 -313.53195381 245.55088615 C-313.49196209 247.55037842 -313.45070858 249.5498458 -313.40827751 251.5492878 C-312.70638549 284.98749375 -312.89416003 318.43763817 -312.93259686 351.88132554 C-312.94291129 360.95302981 -312.94822801 370.02473497 -312.9533155 379.09644341 C-312.96367373 397.22576396 -312.98198936 415.35506454 -313.00390625 433.484375 C-294.19390625 433.484375 -275.38390625 433.484375 -256.00390625 433.484375 C-256.0196167 426.81919678 -256.03532715 420.15401855 -256.05151367 413.28686523 C-256.10132903 391.21063646 -256.13455616 369.13440541 -256.15934277 347.05813503 C-256.16242203 344.38698254 -256.16552593 341.71583011 -256.16870117 339.04467773 C-256.1694881 338.38081317 -256.17027503 337.7169486 -256.17108581 337.03296692 C-256.18327662 326.99615557 -256.20437314 316.95939298 -256.23022461 306.92260742 C-256.26026889 295.25233533 -256.2795147 283.58210203 -256.28617173 271.91179234 C-256.29005868 265.74116367 -256.29909579 259.5706459 -256.32109642 253.40005302 C-256.34169984 247.57325304 -256.34769267 241.74660796 -256.34322929 235.91977501 C-256.34404396 233.79923913 -256.34986569 231.6786972 -256.36152267 229.55819321 C-256.59238208 185.33412204 -246.3156187 140.90315332 -214.50390625 108.609375 C-202.74482438 97.02704476 -187.64199034 87.85996641 -172.00390625 82.484375 C-172.00390625 82.154375 -172.00390625 81.824375 -172.00390625 81.484375 C-205.31586599 79.55817325 -241.18292587 100.00964713 -265.00390625 121.484375 Z M-149.00390625 100.484375 C-146.02199099 103.46629026 -142.32844785 103.54850484 -138.31640625 104.296875 C-111.94665213 109.59507729 -89.47847102 120.89968489 -70.00390625 139.484375 C-69.34261719 140.07089844 -68.68132812 140.65742188 -68 141.26171875 C-49.39465267 158.43877679 -38.82837427 184.44397352 -32.81640625 208.484375 C-32.57833252 209.41314453 -32.34025879 210.34191406 -32.0949707 211.29882812 C-27.05221485 232.55157837 -26.57157788 254.06129074 -26.69972444 275.78404427 C-26.71883613 279.58757935 -26.72026818 283.39112645 -26.72380066 287.19470215 C-26.73302213 294.35507938 -26.75749747 301.51531461 -26.78784913 308.67563009 C-26.8217069 316.84529758 -26.83795692 325.01497285 -26.85293543 333.18469334 C-26.88405943 349.95134946 -26.93894281 366.71781064 -27.00390625 383.484375 C-17.76390625 383.484375 -8.52390625 383.484375 0.99609375 383.484375 C1.75208555 371.56638655 2.28226449 359.67257084 2.55859375 347.734375 C2.57910797 346.85685577 2.59962219 345.97933655 2.62075806 345.07522583 C6.18149672 258.60866615 6.18149672 258.60866615 -17.00390625 176.484375 C-17.35855957 175.75589355 -17.71321289 175.02741211 -18.07861328 174.27685547 C-23.16003318 163.96543613 -29.00886006 154.59755811 -36.00390625 145.484375 C-36.99390625 144.15792969 -36.99390625 144.15792969 -38.00390625 142.8046875 C-49.08364903 128.56548682 -62.45604713 115.837821 -77.32910156 105.64746094 C-78.78068557 104.63939297 -80.18983761 103.57074208 -81.58984375 102.4921875 C-98.65478836 90.31958196 -129.89372495 96.16917277 -149.00390625 100.484375 Z " fill="#999B85" transform="translate(324.00390625,44.515625)"/>
<path d="M0 0 C0.66 0 1.32 0 2 0 C2.43699219 1.55847656 2.43699219 1.55847656 2.8828125 3.1484375 C6.08355831 14.19326458 9.60940875 25.69079022 20 32 C24.59940558 34.1911548 29.25663824 36.14476003 34 38 C34 38.66 34 39.32 34 40 C32.74896484 40.4021875 32.74896484 40.4021875 31.47265625 40.8125 C21.14282153 44.40960167 13.18733943 49.22135381 8.12890625 59.21484375 C5.6508267 65.32858327 3.82613989 71.66679146 2 78 C1.34 78 0.68 78 0 78 C-0.21914062 77.03320312 -0.43828125 76.06640625 -0.6640625 75.0703125 C-2.619823 66.87152807 -4.86785598 59.84703117 -10 53 C-10.46664062 52.36707031 -10.93328125 51.73414063 -11.4140625 51.08203125 C-16.76830697 44.86287037 -24.61170125 42.12837875 -32 39 C-29.51541618 37.34361079 -27.40948793 36.26268753 -24.6875 35.125 C-13.71752131 30.27903854 -7.39642737 23.08460943 -3 12 C-1.82885034 8.03214496 -0.85529292 4.04699577 0 0 Z " fill="#999B85" transform="translate(190,233)"/>
</svg>
